<?xml version="1.0" encoding="UTF-8" standalone="no"?>
<svg
   fill="#000000"
   viewBox="0 0 30 30"
   width="30px"
   height="30px"
   version="1.1"
   id="svg4"
   sodipodi:docname="icons8-instagram.svg"
   inkscape:version="1.1.2 (0a00cf5339, 2022-02-04)"
   xmlns:inkscape="http://www.inkscape.org/namespaces/inkscape"
   xmlns:sodipodi="http://sodipodi.sourceforge.net/DTD/sodipodi-0.dtd"
   xmlns="http://www.w3.org/2000/svg"
   xmlns:svg="http://www.w3.org/2000/svg">
  <defs
     id="defs8" />
  <sodipodi:namedview
     id="namedview6"
     pagecolor="#0000ff"
     bordercolor="#666666"
     borderopacity="1.0"
     inkscape:pageshadow="2"
     inkscape:pageopacity="0"
     inkscape:pagecheckerboard="0"
     showgrid="false"
     inkscape:zoom="28.066667"
     inkscape:cx="15"
     inkscape:cy="15"
     inkscape:window-width="1920"
     inkscape:window-height="1004"
     inkscape:window-x="0"
     inkscape:window-y="40"
     inkscape:window-maximized="1"
     inkscape:current-layer="svg4" />
  <path
     d="M 9.9980469 3 C 6.1390469 3 3 6.1419531 3 10.001953 L 3 20.001953 C 3 23.860953 6.1419531 27 10.001953 27 L 20.001953 27 C 23.860953 27 27 23.858047 27 19.998047 L 27 9.9980469 C 27 6.1390469 23.858047 3 19.998047 3 L 9.9980469 3 z M 22 7 C 22.552 7 23 7.448 23 8 C 23 8.552 22.552 9 22 9 C 21.448 9 21 8.552 21 8 C 21 7.448 21.448 7 22 7 z M 15 9 C 18.309 9 21 11.691 21 15 C 21 18.309 18.309 21 15 21 C 11.691 21 9 18.309 9 15 C 9 11.691 11.691 9 15 9 z M 15 11 A 4 4 0 0 0 11 15 A 4 4 0 0 0 15 19 A 4 4 0 0 0 19 15 A 4 4 0 0 0 15 11 z"
     id="path2"
     style="fill:#ffffff" />
</svg>
