<?xml version="1.0" encoding="UTF-8" standalone="no"?>
<!-- Created with Inkscape (http://www.inkscape.org/) -->

<svg
   width="1732.2473"
   height="328.96863"
   viewBox="0 0 458.32378 87.039615"
   version="1.1"
   id="svg8"
   xmlns="http://www.w3.org/2000/svg"
   xmlns:svg="http://www.w3.org/2000/svg"
   xmlns:rdf="http://www.w3.org/1999/02/22-rdf-syntax-ns#"
   xmlns:cc="http://creativecommons.org/ns#"
   xmlns:dc="http://purl.org/dc/elements/1.1/">
  <defs
     id="defs2" />
  <metadata
     id="metadata5">
    <rdf:RDF>
      <cc:Work
         rdf:about="">
        <dc:format>image/svg+xml</dc:format>
        <dc:type
           rdf:resource="http://purl.org/dc/dcmitype/StillImage" />
      </cc:Work>
    </rdf:RDF>
  </metadata>
  <g
     id="layer1"
     transform="translate(-71.184196,-89.128793)">
    <path
       style="fill:#ffffff;stroke:none;stroke-width:0.264583"
       d="m 106.95322,146.73852 c -2.4064,-0.68125 -4.50156,-2.81412 -4.50264,-4.5056 l -0.015,-23.53248 -0.0305,-24.966142 c 0.38597,-1.433388 1.68241,-3.171484 4.22857,-4.080013 2.13243,-0.760899 5.31403,-0.677694 7.24367,0.134382 2.03427,1.054238 3.81264,3.303551 3.81264,4.875803 0,0.420275 0.26835,0.533848 1.62361,0.687179 2.63836,0.298495 4.40027,1.103506 6.06697,2.77196 1.58067,1.582343 2.24354,3.009771 2.53016,5.448471 0.14502,1.23391 0.25077,1.39565 1.41699,2.16738 3.05284,2.02013 3.41255,6.78065 0.70341,9.30905 l -0.67494,0.6299 0.50921,0.99814 c 2.07295,4.06331 0.12858,10.56374 -3.67245,12.27777 -0.98899,0.44597 -1.04977,0.5434 -1.22437,1.96261 -0.40533,3.29473 -2.45749,5.98516 -5.07742,6.65662 l -1.34165,0.34386 -0.13229,1.64813 c -0.23814,2.96668 -2.0956,5.43679 -5.08159,6.75763 -1.59731,0.70657 -4.69858,0.92985 -6.38238,0.41535 z m 5.31279,-1.99003 c 2.28235,-1.04042 3.82053,-3.06444 4.19895,-5.5252 l 0.17292,-1.12448 h -6.88541 l 8.1e-4,-4.89768 1.58569,-5.9e-4 10e-4,3.09303 3.38311,4.5e-4 c 2.90625,-0.10495 3.59086,-0.31649 4.85694,-0.89612 1.55834,-0.71344 2.58872,-1.71359 3.10048,-3.24208 0.16668,-0.49781 0.30933,-2.51737 0.30113,-4.52306 l -0.0165,-4.03643 1.96334,0.002 0.0375,4.02054 0.94022,-0.827 c 2.92826,-2.57565 3.54076,-7.9446 1.19509,-10.47562 l -0.61858,-0.66745 1.02924,-0.82712 c 2.03651,-1.63658 2.87037,-4.91204 1.66239,-6.53 -1.11598,-1.49473 -1.82306,-1.80331 -4.3596,-1.9026 l -2.36229,0.007 0.0245,4.99802 -1.85166,0.005 0.008,-6.91864 5.25858,-0.003 v -0.79471 c 0,-1.01079 -0.87605,-2.76838 -1.94675,-3.905665 -1.18843,-1.262359 -2.68347,-1.945362 -4.59389,-2.098712 l -1.66143,-0.133363 v 5.36412 l -4.90528,0.0165 -0.006,-1.60406 h 3.05924 l -0.006,-3.241142 c -0.007,-3.840192 -0.41023,-5.060056 -2.02394,-6.121212 -2.88002,-1.893861 -7.16364,-1.337197 -8.94415,1.304917 l -0.48301,0.727364 0.0137,23.998823 h 7.20988 l -0.004,-3.25864 1.85652,4e-5 2.7e-4,3.25863 h 3.175 l 0.0166,6.5319 h -1.60406 l 10e-6,-4.69077 -10.66601,-0.006 0.0594,22.17752 c 0.36522,1.14622 2.51526,4.73552 7.82853,2.74486 z"
       id="path826" />
    <path
       id="path868"
       style="opacity:1;fill:none;stroke:#ffffff;stroke-width:0.75"
       d="m 111.76591,132.14392 a 1.2326567,1.2326567 0 0 1 -1.23265,1.23266 1.2326567,1.2326567 0 0 1 -1.23266,-1.23266 1.2326567,1.2326567 0 0 1 1.23266,-1.23266 1.2326567,1.2326567 0 0 1 1.23265,1.23266 z" />
    <path
       id="path868-6"
       style="opacity:1;fill:none;stroke:#ffffff;stroke-width:0.75"
       d="m 113.7792,113.67683 a 1.2326567,1.2326567 0 0 1 -1.23265,1.23265 1.2326567,1.2326567 0 0 1 -1.23266,-1.23265 1.2326567,1.2326567 0 0 1 1.23266,-1.23266 1.2326567,1.2326567 0 0 1 1.23265,1.23266 z" />
    <path
       id="path868-7"
       style="opacity:1;fill:none;stroke:#ffffff;stroke-width:0.75"
       d="m 122.77163,112.46053 a 1.2326567,1.2326567 0 0 1 -1.23266,1.23266 1.2326567,1.2326567 0 0 1 -1.23266,-1.23266 1.2326567,1.2326567 0 0 1 1.23266,-1.23265 1.2326567,1.2326567 0 0 1 1.23266,1.23265 z" />
    <path
       id="path868-3"
       style="opacity:1;fill:none;stroke:#ffffff;stroke-width:0.75"
       d="m 117.07413,125.58099 a 1.2326567,1.2326567 0 0 1 -1.23266,1.23266 1.2326567,1.2326567 0 0 1 -1.23266,-1.23266 1.2326567,1.2326567 0 0 1 1.23266,-1.23265 1.2326567,1.2326567 0 0 1 1.23266,1.23265 z" />
    <path
       id="path868-5"
       style="opacity:1;fill:none;stroke:#ffffff;stroke-width:0.75"
       d="m 125.18624,122.53386 a 1.2326567,1.2326567 0 0 1 -1.23266,1.23266 1.2326567,1.2326567 0 0 1 -1.23265,-1.23266 1.2326567,1.2326567 0 0 1 1.23265,-1.23266 1.2326567,1.2326567 0 0 1 1.23266,1.23266 z" />
    <path
       id="path868-36"
       style="opacity:1;fill:none;stroke:#ffffff;stroke-width:0.75"
       d="m 112.95653,102.12197 a 1.2326567,1.2326567 0 0 1 -1.23265,1.23266 1.2326567,1.2326567 0 0 1 -1.23266,-1.23266 1.2326567,1.2326567 0 0 1 1.23266,-1.23266 1.2326567,1.2326567 0 0 1 1.23265,1.23266 z" />
    <g
       id="text845"
       style="font-size:10.5833px;line-height:6.61458px;letter-spacing:0px;word-spacing:0px;stroke-width:0.264583px" />
    <path
       style="fill:#ffffff;stroke:none;stroke-width:0.264583"
       d="m 96.089366,146.73852 c 2.406386,-0.68125 4.501534,-2.81412 4.502614,-4.5056 l 0.015,-23.53248 0.0305,-24.966142 c -0.38597,-1.433388 -1.682398,-3.171484 -4.228547,-4.080013 -2.132418,-0.760899 -5.314,-0.677694 -7.243638,0.134382 -2.034258,1.054238 -3.812619,3.303551 -3.812619,4.875803 0,0.420275 -0.268347,0.533848 -1.623601,0.687179 -2.638345,0.298495 -4.400246,1.103506 -6.066934,2.77196 -1.580661,1.582343 -2.243528,3.009771 -2.530148,5.448471 -0.145017,1.23391 -0.250767,1.39565 -1.416997,2.16738 -3.05284,2.02013 -3.41255,6.78065 -0.70341,9.30905 l 0.67494,0.6299 -0.50921,0.99814 c -2.07295,4.06331 -0.12858,10.56374 3.672448,12.27777 0.988984,0.44597 1.049764,0.5434 1.224364,1.96261 0.405327,3.29473 2.457475,5.98516 5.07739,6.65662 l 1.341644,0.34386 0.132287,1.64813 c 0.23814,2.96668 2.095588,5.43679 5.081563,6.75763 1.597311,0.70657 4.698563,0.92985 6.382354,0.41535 z m -5.31276,-1.99003 c -2.282348,-1.04042 -3.820519,-3.06444 -4.198936,-5.5252 l -0.17292,-1.12448 h 6.885381 l -8.2e-4,-4.89768 -1.585681,-5.3e-4 -0.001,3.09303 -3.383112,5.3e-4 c -2.906232,-0.10496 -3.590829,-0.3165 -4.85691,-0.89612 -1.558331,-0.71344 -2.588705,-1.7136 -3.100465,-3.24209 -0.166677,-0.4978 -0.309327,-2.51736 -0.301127,-4.52306 l 0.0165,-4.03642 -1.963338,0.002 -0.0375,4.02055 -0.940214,-0.827 c -2.928248,-2.57565 -3.540748,-7.9446 -1.195084,-10.47562 l 0.618577,-0.66745 -1.029234,-0.82712 c -2.036487,-1.63684 -2.870347,-4.9123 -1.662367,-6.53026 1.11598,-1.49473 1.823054,-1.80331 4.359582,-1.9026 l 2.362285,0.007 -0.0245,4.99802 1.851651,0.005 -0.008,-6.91864 -5.25856,-0.003 v -0.79471 c 0,-1.01079 0.876044,-2.76838 1.946738,-3.905665 1.188434,-1.262359 2.683465,-1.945362 4.593873,-2.098712 l 1.661421,-0.133252 v 5.364119 l 4.905253,0.0165 0.006,-1.60406 h -3.059222 l 0.006,-3.241142 c 0.007,-3.840192 0.410227,-5.060056 2.023928,-6.121212 2.880002,-1.893861 7.163608,-1.337197 8.944117,1.304917 l 0.483,0.727364 -0.0137,23.998823 h -7.209849 l 0.004,-3.25864 -1.856511,4e-5 -2.7e-4,3.25863 H 86.41061 l -0.0166,6.5319 h 1.604051 l -1e-5,-4.69077 10.665961,-0.006 -0.0594,22.17752 c -0.36521,1.14622 -2.515246,4.73552 -7.828496,2.74486 z"
       id="path826-1" />
    <path
       id="path868-2"
       style="opacity:1;fill:none;stroke:#ffffff;stroke-width:0.75"
       transform="scale(-1,1)"
       d="m -91.276605,132.14392 a 1.2326567,1.2326567 0 0 1 -1.232657,1.23266 1.2326567,1.2326567 0 0 1 -1.232657,-1.23266 1.2326567,1.2326567 0 0 1 1.232657,-1.23266 1.2326567,1.2326567 0 0 1 1.232657,1.23266 z" />
    <path
       id="path868-6-7"
       style="opacity:1;fill:none;stroke:#ffffff;stroke-width:0.75"
       transform="scale(-1,1)"
       d="m -89.263284,113.67683 a 1.2326567,1.2326567 0 0 1 -1.232657,1.23265 1.2326567,1.2326567 0 0 1 -1.232657,-1.23265 1.2326567,1.2326567 0 0 1 1.232657,-1.23266 1.2326567,1.2326567 0 0 1 1.232657,1.23266 z" />
    <path
       id="path868-7-0"
       style="opacity:1;fill:none;stroke:#ffffff;stroke-width:0.75"
       transform="scale(-1,1)"
       d="m -80.270899,112.46053 a 1.2326567,1.2326567 0 0 1 -1.232656,1.23266 1.2326567,1.2326567 0 0 1 -1.232657,-1.23266 1.2326567,1.2326567 0 0 1 1.232657,-1.23265 1.2326567,1.2326567 0 0 1 1.232656,1.23265 z" />
    <path
       id="path868-3-9"
       style="opacity:1;fill:none;stroke:#ffffff;stroke-width:0.75"
       transform="scale(-1,1)"
       d="m -85.968416,125.58099 a 1.2326567,1.2326567 0 0 1 -1.232657,1.23266 1.2326567,1.2326567 0 0 1 -1.232656,-1.23266 1.2326567,1.2326567 0 0 1 1.232656,-1.23265 1.2326567,1.2326567 0 0 1 1.232657,1.23265 z" />
    <path
       id="path868-5-3"
       style="opacity:1;fill:none;stroke:#ffffff;stroke-width:0.75"
       transform="scale(-1,1)"
       d="m -77.85631,122.53386 a 1.2326567,1.2326567 0 0 1 -1.232656,1.23266 1.2326567,1.2326567 0 0 1 -1.232657,-1.23266 1.2326567,1.2326567 0 0 1 1.232657,-1.23266 1.2326567,1.2326567 0 0 1 1.232656,1.23266 z" />
    <path
       id="path868-36-6"
       style="opacity:1;fill:none;stroke:#ffffff;stroke-width:0.75"
       transform="scale(-1,1)"
       d="m -90.085993,102.12197 a 1.2326567,1.2326567 0 0 1 -1.232656,1.23266 1.2326567,1.2326567 0 0 1 -1.232657,-1.23266 1.2326567,1.2326567 0 0 1 1.232657,-1.23266 1.2326567,1.2326567 0 0 1 1.232656,1.23266 z" />
    <path
       style="fill:#ffffff;stroke:#ffffff;stroke-width:0.202923"
       d="m 99.261182,164.83202 -3.445674,-0.45142 8.676442,-16.63102 c 2.3151,1.28984 4.83564,0.96998 4.83564,0.96998 l -8.76864,12.28083 5.64344,-0.53403 -13.854512,15.63476 z"
       id="path826-3-3" />
    <g
       aria-label="Brain Stormz"
       id="text831"
       style="font-size:10.5833px;line-height:6.61458px;letter-spacing:0px;word-spacing:0px;stroke-width:0.264583px">
      <path
         d="m 180.45067,141.74365 q -0.34451,6.85575 -8.09598,8.16489 h -23.46112 v -34.41653 h 20.67059 q 5.61551,0.10335 8.16488,2.65272 2.58382,2.51493 2.51492,7.23471 -0.0689,4.71978 -5.09874,6.71794 4.89203,2.20486 5.30545,7.54476 z m -8.7161,-15.813 q -0.0344,-2.85943 -3.47955,-2.89388 h -10.4042 v 5.75332 h 10.43865 q 3.47955,0 3.4451,-2.85944 z m -0.58567,13.33253 q 0,-2.92833 -3.03168,-3.06613 h -6.44234 l -3.85851,-6.09783 v 12.0923 h 10.30085 q 3.06613,0 3.03168,-2.92834 z"
         style="font-size:70.5556px;font-family:'ROBOTECH GP';-inkscape-font-specification:'ROBOTECH GP';fill:#ffffff"
         id="path5003" />
      <path
         d="m 189.82133,130.40928 h 10.36975 q 2.65272,-0.65457 2.72162,-3.61735 -0.0689,-3.30729 -2.99723,-3.78961 h -10.09414 z m -8.61274,19.4648 v -34.38207 h 19.70596 q 4.82313,0.2067 7.85482,3.23839 3.06614,2.99724 3.06614,8.02708 -0.17226,8.50939 -7.85483,10.542 l 8.68165,12.5746 h -10.4731 l -12.40235,-17.60445 v 17.60445 z"
         style="font-size:70.5556px;font-family:'ROBOTECH GP';-inkscape-font-specification:'ROBOTECH GP';fill:#ffffff"
         id="path5005" />
      <path
         d="m 253.59009,149.90854 h -9.12951 l -2.79053,-6.20118 h -9.26731 l -4.20302,-5.75331 -5.4088,11.95449 h -9.47402 l 15.29623,-34.41653 h 9.64628 z m -15.33068,-13.81485 -4.68534,-10.26639 -4.58198,10.26639 z"
         style="font-size:70.5556px;font-family:'ROBOTECH GP';-inkscape-font-specification:'ROBOTECH GP';fill:#ffffff"
         id="path5007" />
      <path
         d="m 263.20192,115.42311 v 34.45097 h -8.61275 v -34.45097 z"
         style="font-size:70.5556px;font-family:'ROBOTECH GP';-inkscape-font-specification:'ROBOTECH GP';fill:#ffffff"
         id="path5009" />
      <path
         d="m 273.50275,129.61691 v 20.25717 h -8.57829 v -34.34762 l -0.0344,-0.0689 h 0.0344 v -0.0345 h 8.57829 v 0.0345 l 13.81485,20.01602 v -20.01602 h 8.64719 v 34.20982 l 0.13781,0.2067 h -8.785 v -0.2756 z"
         style="font-size:70.5556px;font-family:'ROBOTECH GP';-inkscape-font-specification:'ROBOTECH GP';fill:#ffffff"
         id="path5011" />
      <path
         d="m 345.33304,128.85899 q 9.09506,1.51584 9.16396,9.47402 v 0.96462 q -0.0689,9.47402 -9.09506,10.57645 h -21.87637 l 3.41065,-7.44141 h 16.32976 q 2.65273,-0.44786 2.65273,-3.34174 0,-2.51492 -2.82498,-2.99724 h -10.4042 q -9.09506,-1.51584 -9.16396,-9.43956 v -0.96463 q 0.0689,-9.09506 9.09506,-10.23194 h 21.91082 l -3.47955,7.40696 h -16.43311 q -2.54938,0.37896 -2.51493,3.16949 0,2.51492 2.82498,2.82498 z"
         style="font-size:70.5556px;font-family:'ROBOTECH GP';-inkscape-font-specification:'ROBOTECH GP';fill:#ffffff"
         id="path5013" />
      <path
         d="m 366.55485,122.86452 h -10.33529 v -7.40696 h 31.04033 l -3.47955,7.40696 h -8.61274 v 27.00956 h -8.61275 z"
         style="font-size:70.5556px;font-family:'ROBOTECH GP';-inkscape-font-specification:'ROBOTECH GP';fill:#ffffff"
         id="path5015" />
      <path
         d="m 423.43341,132.61414 q 0,7.71702 -4.54753,12.47126 -4.51308,4.75423 -12.74686,4.75423 -8.16488,0 -12.74686,-4.92649 -4.54753,-4.96094 -4.54753,-12.299 0,-7.71701 4.85759,-12.47125 4.89204,-4.75423 12.4368,-4.75423 7.88927,0 12.57461,4.75423 4.71978,4.75424 4.71978,12.47125 z m -9.02615,0 q 0,-4.13411 -1.82591,-6.99354 -1.8259,-2.89389 -5.99447,-2.89389 -4.44417,0 -6.51123,2.92834 -2.03261,2.89388 -2.03261,6.95909 0,3.3762 2.03261,6.64904 2.03261,3.27285 6.51123,3.27285 4.16857,0 5.99447,-2.92834 1.82591,-2.92833 1.82591,-6.99355 z"
         style="font-size:70.5556px;font-family:'ROBOTECH GP';-inkscape-font-specification:'ROBOTECH GP';fill:#ffffff"
         id="path5017" />
      <path
         d="m 433.94097,130.40928 h 10.36975 q 2.65272,-0.65457 2.72162,-3.61735 -0.0689,-3.30729 -2.99723,-3.78961 h -10.09414 z m -8.61274,19.4648 v -34.38207 h 19.70596 q 4.82313,0.2067 7.85482,3.23839 3.06614,2.99724 3.06614,8.02708 -0.17226,8.50939 -7.85483,10.542 l 8.68165,12.5746 h -10.4731 l -12.40235,-17.60445 v 17.60445 z"
         style="font-size:70.5556px;font-family:'ROBOTECH GP';-inkscape-font-specification:'ROBOTECH GP';fill:#ffffff"
         id="path5019" />
      <path
         d="m 481.10436,136.12814 h -8.54385 l -5.92556,-8.19933 v 21.94527 h -8.61275 v -34.45097 h 8.5783 z m 5.89111,-20.67058 h 8.5783 v 34.41652 h -8.61275 v -21.08399 h -9.26731 z"
         style="font-size:70.5556px;font-family:'ROBOTECH GP';-inkscape-font-specification:'ROBOTECH GP';fill:#ffffff"
         id="path5021" />
      <path
         d="m 514.55625,122.83007 h -16.12306 v -7.44141 h 31.07478 l -16.29531,27.04401 h 14.57276 v 7.44141 h -29.28333 z"
         style="font-size:70.5556px;font-family:'ROBOTECH GP';-inkscape-font-specification:'ROBOTECH GP';fill:#ffffff"
         id="path5023" />
    </g>
  </g>
</svg>
